<?xml version="1.0" encoding="UTF-8"?><svg xmlns="http://www.w3.org/2000/svg" viewBox="0 0 90.14 90.14"><defs><style>.d{stroke:#000;stroke-linecap:round;stroke-linejoin:round;stroke-width:1.5px;}.d,.e{fill:none;}.f{fill:#3ff;}</style></defs><g id="a"><circle class="f" cx="45.07" cy="45.07" r="42.52"/><rect class="f" width="90.14" height="90.14"/></g><g id="b"><g><path class="d" d="M55.7,46.29V18.14c0-1.35-1.09-2.44-2.44-2.44H31.69l-13.19,13.18V63.87c0,1.35,1.1,2.44,2.44,2.44h19.99"/><path class="d" d="M32.33,15.7v10.6c0,1.34-1.09,2.44-2.44,2.44h-11.25"/><circle class="d" cx="55.7" cy="62.13" r="12.56"/><line class="d" x1="26.12" y1="34.91" x2="48.08" y2="34.91"/><line class="d" x1="26.12" y1="41.06" x2="48.08" y2="41.06"/><line class="d" x1="26.12" y1="47.21" x2="48.08" y2="47.21"/><line class="d" x1="26.12" y1="53.35" x2="40.91" y2="53.35"/><line class="d" x1="50.51" y1="68.29" x2="60.88" y2="68.29"/><polyline class="d" points="50.51 60.21 55.7 64.63 60.88 60.21"/><line class="d" x1="55.7" y1="54.73" x2="55.7" y2="64.63"/></g></g><g id="c"><circle class="e" cx="45.07" cy="45.07" r="42.52"/></g></svg>