<?xml version="1.0" encoding="UTF-8"?><svg xmlns="http://www.w3.org/2000/svg" viewBox="0 0 90.14 90.14"><defs><style>.d{stroke:#fff;stroke-linecap:round;stroke-linejoin:round;stroke-width:1.5px;}.d,.e{fill:none;}.f{fill:#c00;}</style></defs><g id="a"><circle class="f" cx="45.07" cy="45.07" r="42.52"/><rect class="f" width="90.14" height="90.14"/></g><g id="b"><g><path class="d" d="M51.67,21.22h4.35c1.98,0,3.58,1.62,3.58,3.62v5.15"/><path class="d" d="M20.83,29.98v-5.15c0-2,1.61-3.62,3.59-3.62h5.9"/><path class="d" d="M20.83,51.49v5.15c0,2,1.61,3.62,3.59,3.62h5.9"/><line class="d" x1="20.83" y1="46.86" x2="20.83" y2="34.62"/><line class="d" x1="47.07" y1="21.22" x2="34.91" y2="21.22"/><line class="d" x1="59.61" y1="46.86" x2="59.61" y2="34.62"/><line class="d" x1="47.07" y1="60.25" x2="34.91" y2="60.25"/><polygon class="d" points="68.68 67.66 62.01 61.3 68.93 58.1 52.99 53.47 57.1 70.51 59.88 63.6 66.56 69.96 68.68 67.66"/></g></g><g id="c"><circle class="e" cx="45.07" cy="45.07" r="42.52"/></g></svg>