<?xml version="1.0" encoding="UTF-8"?><svg xmlns="http://www.w3.org/2000/svg" viewBox="0 0 90.14 90.14">
    <defs>
        <style>
            .d {
                stroke: #c00;
                ;
                stroke-linecap: round;
                stroke-linejoin: round;
                stroke-width: 1.5px;
            }

            .d,
            .e {
                fill: none;
            }

            .f {
                fill: #fff;
            }
        </style>
    </defs>
    <g id="a">
        <circle class="f" cx="45.07" cy="45.07" r="42.52" />
        <rect class="f" width="90.14" height="90.14" />
    </g>
    <g id="b">
        <path class="d"
            d="M69.41,59.88c-.76,0-1.51-.35-2-1l-22.36-29.94-22.92,29.96c-.84,1.1-2.41,1.31-3.5,.47-1.1-.84-1.31-2.41-.47-3.5L43.09,23.28c.48-.62,1.26-1,2-.98,.78,0,1.52,.38,1.99,1l24.34,32.59c.83,1.11,.6,2.67-.51,3.5-.45,.34-.97,.5-1.49,.5Z" />
    </g>
    <g id="c">
        <circle class="e" cx="45.07" cy="45.07" r="42.52" />
    </g>
</svg>