<?xml version="1.0" encoding="UTF-8"?><svg xmlns="http://www.w3.org/2000/svg" viewBox="0 0 90.14 90.14"><defs><style>.d{stroke:#000;stroke-linecap:round;stroke-linejoin:round;stroke-width:1.5px;}.d,.e{fill:none;}.f{fill:#3ff;}</style></defs><g id="a"><circle class="f" cx="45.07" cy="45.07" r="42.52"/><rect class="f" width="90.14" height="90.14"/></g><g id="b"><g><circle class="d" cx="61.84" cy="59.16" r="10.6"/><line class="d" x1="57.46" y1="64.37" x2="66.21" y2="64.37"/><polyline class="d" points="57.46 57.55 61.84 61.28 66.21 57.55"/><line class="d" x1="61.84" y1="52.92" x2="61.84" y2="61.28"/><path class="d" d="M48.8,64.37H25.64c-3.65,0-6.63-2.97-6.63-6.63V27.37c0-3.65,2.97-6.62,6.63-6.62H61.95c3.66,0,6.63,2.96,6.63,6.62v19.84"/><circle class="d" cx="29.47" cy="31.19" r="4.63"/><polyline class="d" points="48.59 57.55 25.78 57.55 34.1 47.22 38.39 51.64 48.59 37.69 54.49 45.41"/></g></g><g id="c"><circle class="e" cx="45.07" cy="45.07" r="42.52"/></g></svg>