<?xml version="1.0" encoding="UTF-8"?><svg xmlns="http://www.w3.org/2000/svg" viewBox="0 0 90.14 90.14"><defs><style>.d{stroke:#fff;stroke-linecap:round;stroke-linejoin:round;stroke-width:1.5px;}.d,.e{fill:none;}.f{fill:#c00;}</style></defs><g id="a"><rect class="f" width="90.14" height="90.14"/><circle class="f" cx="45.07" cy="45.07" r="42.52"/></g><g id="b"><g><polygon class="d" points="31.01 54.48 16.91 45.5 31.01 37.56 45.12 45.5 31.01 54.48"/><polygon class="d" points="59.16 54.48 45.05 45.5 59.16 37.56 73.27 45.5 59.16 54.48"/><polygon class="d" points="45.09 29.43 30.98 20.45 45.09 12.5 59.19 20.45 45.09 29.43"/><polyline class="d" points="45.09 62.43 30.98 71.4 16.87 62.43 16.87 45.5"/><line class="d" x1="31.01" y1="54.48" x2="31.01" y2="71.4"/><line class="d" x1="59.16" y1="54.48" x2="59.16" y2="71.4"/><polyline class="d" points="73.27 45.5 73.23 62.43 59.13 71.4 45.02 62.43 45.02 29.43"/><line class="d" x1="59.19" y1="20.45" x2="59.19" y2="37.56"/><line class="d" x1="30.98" y1="20.45" x2="30.98" y2="37.56"/></g></g><g id="c"><circle class="e" cx="45.07" cy="45.07" r="42.52"/></g></svg>