<?xml version="1.0" encoding="UTF-8"?>
<svg xmlns="http://www.w3.org/2000/svg" viewBox="0 0 425.66 425">
  <defs>
    <style>
      .cls-1 {
        fill: #fff;
      }

      .cls-2 {
        fill: #cb2026;
      }
    </style>
  </defs>
  <g id="Layer_1" data-name="Layer 1"/>
  <g id="Layer_2" data-name="Layer 2">
    <g id="Layer_1-2" data-name="Layer 1">
      <g>
        <path class="cls-1" d="M425.66,425H0C0,283.33,0,141.67,0,0c141.89,0,283.78,0,425.66,0,0,141.67,0,283.33,0,425ZM246.63,3.11C143.89-14.73,30.98,49.62,5.27,167.39c-26.76,122.54,57.16,238.26,178.11,255.1,122.29,17.03,233.04-72.69,241.38-195.18,3.95-58.04-13.36-109.5-51.29-153.65-27.31-31.79-61.47-53.2-101.88-65.15,.08,.67,.08,.99,.15,1.31,1.86,8.36,3.79,16.7,5.53,25.09,.42,2.04,1.36,2.97,3.27,3.73,35.11,14.09,63.29,36.77,84.01,68.46,16.66,25.48,25.78,53.52,27.47,83.93,1.19,21.54-1.42,42.64-8.42,63.06-15.7,45.79-45.52,79.44-88.42,101.51-22.93,11.8-47.46,17.94-73.21,19.16-16.44,.78-32.71-.55-48.76-4.22-35.86-8.2-66.66-25.47-91.81-52.34-27.05-28.9-42.61-63.13-46.28-102.64-1.62-17.42-.55-34.69,3.25-51.77,7.82-35.09,24.84-65.08,51.22-89.38,38.93-35.86,85.19-51.47,137.94-48.1,.6,.04,1.45-.41,1.84-.9,4.11-5.21,8.15-10.48,12.21-15.73,1.65-2.14,3.3-4.28,5.06-6.57Zm41.06,219.48c-12.85-57.72-25.61-115.03-38.44-172.71-35.91,46.5-71.55,92.66-107.37,139.06,48.66,11.23,97.05,22.4,145.82,33.65Z"/>
        <path class="cls-2" d="M246.63,3.11c-1.77,2.29-3.41,4.43-5.06,6.57-4.06,5.25-8.1,10.52-12.21,15.73-.39,.49-1.24,.94-1.84,.9-52.75-3.37-99.01,12.23-137.94,48.1-26.38,24.3-43.4,54.29-51.22,89.38-3.8,17.07-4.87,34.35-3.25,51.77,3.67,39.51,19.23,73.74,46.28,102.64,25.15,26.87,55.95,44.14,91.81,52.34,16.05,3.67,32.33,5,48.76,4.22,25.75-1.22,50.28-7.36,73.21-19.16,42.89-22.07,72.72-55.72,88.42-101.51,7-20.42,9.61-41.52,8.42-63.06-1.68-30.4-10.81-58.45-27.47-83.93-20.72-31.7-48.9-54.38-84.01-68.46-1.9-.76-2.84-1.7-3.27-3.73-1.74-8.38-3.67-16.73-5.53-25.09-.07-.31-.08-.64-.15-1.31,40.4,11.95,74.57,33.36,101.88,65.15,37.93,44.15,55.24,95.61,51.29,153.65-8.34,122.49-119.09,212.22-241.38,195.18C62.43,405.65-21.49,289.94,5.27,167.39,30.98,49.62,143.89-14.73,246.63,3.11Z"/>
        <path class="cls-2" d="M287.69,222.59c-48.76-11.25-97.16-22.42-145.82-33.65,35.82-46.39,71.47-92.55,107.37-139.06,12.84,57.68,25.6,114.99,38.44,172.71Z"/>
      </g>
    </g>
  </g>
</svg>